---
title: Target Routing Setup
---
erDiagram
    User ||--o{ VPN: "routes traffic through"
    Root ||--o{ VPN: "routes traffic through"
    Worker ||--o{ VPN: "routes subnet 10.128.0.0/24 through"
    Worker ||--o{ Internet: "bypasses all other traffic"
    User {
        using UIapp
        user User
        group users
    }
    Root {
        running SystemService
        user root
    }
    Worker {
        running EdgeClient
        user gnosisvpn
        group gnosisvpn
    }
